<svg
        xmlns="http://www.w3.org/2000/svg"
        width="32"
        height="32"
        fill="none"
>
    <g>
        <path
                fill="#ff7300"
                d="M30.443 15.413c-.229-2.58-.607-3.082-.75-3.27-.327-.437-.852-.723-1.407-1.022a.23.23 0 0 1-.119-.167.23.23 0 0 1 .061-.196 1.02 1.02 0 0 0-.048-1.474 1.03 1.03 0 0 0-.704-.268h-.993q-.064 0-.128.008a1 1 0 0 0-.09-.03c-.588-1.246-1.393-2.953-3.062-3.786-2.476-1.235-7.037-1.298-7.928-1.298-.892 0-5.452.063-7.925 1.296-1.67.833-2.475 2.54-3.063 3.786l-.005.01a.4.4 0 0 0-.086.022 1 1 0 0 0-.127-.008h-.995a1.034 1.034 0 0 0-1.041.943 1.02 1.02 0 0 0 .292.796.23.23 0 0 1-.058.362c-.555.301-1.082.587-1.407 1.021-.143.192-.52.692-.75 3.271-.127 1.452-.146 2.954-.046 3.922.21 2.01.602 3.226.619 3.276a1.02 1.02 0 0 0 .84.694v.013a1.02 1.02 0 0 0 1.019 1.021h3.565a1.017 1.017 0 0 0 1.018-1.021c.548 0 .93-.099 1.334-.203q.877-.237 1.783-.314a57 57 0 0 1 5.033-.25c1.136 0 3.152.065 5.098.25q.91.077 1.79.315c.387.1.754.192 1.263.201a1.023 1.023 0 0 0 1.018 1.021h3.565a1.017 1.017 0 0 0 1.019-1.02v-.009a1.02 1.02 0 0 0 .843-.693c.017-.05.41-1.266.619-3.277.1-.968.082-2.468-.047-3.922M6.128 9.866c.51-1.086 1.092-2.314 2.13-2.831 1.498-.748 4.604-1.085 7.017-1.085s5.519.334 7.017 1.085c1.037.517 1.617 1.746 2.13 2.83l.063.139a.512.512 0 0 1-.474.729c-2.115-.058-6.572-.241-8.736-.241s-6.621.188-8.74.245a.51.51 0 0 1-.521-.476.5.5 0 0 1 .047-.252zm.76 5.082a27 27 0 0 1-3.3.196c-.675 0-1.371-.192-1.5-.794-.089-.406-.08-.634-.032-.863.04-.194.104-.336.423-.386.827-.128 1.29.033 2.645.433.898.265 1.546.618 1.915.897.186.138.087.498-.151.517m14.094 5.234c-.838.096-2.514.06-5.688.06s-4.85.036-5.687-.06c-.865-.096-1.967-.916-1.214-1.646.5-.481 1.67-.841 3.226-1.044 1.557-.202 2.216-.306 3.669-.306s2.044.064 3.668.307c1.623.243 2.85.608 3.226 1.044.687.781-.336 1.544-1.2 1.65zm7.48-5.833c-.127.605-.828.794-1.5.794q-1.687 0-3.364-.195c-.195-.019-.285-.362-.088-.517.364-.287 1.019-.633 1.916-.898 1.355-.4 2.136-.56 2.807-.427.163.033.25.209.26.32.045.307.035.62-.031.923"
        />
    </g>
</svg>
